<?xml version="1.0" standalone="no"?><!DOCTYPE svg PUBLIC "-//W3C//DTD SVG 1.1//EN" "http://www.w3.org/Graphics/SVG/1.1/DTD/svg11.dtd"><svg t="1721703723392" class="icon" viewBox="0 0 1024 1024" version="1.1" xmlns="http://www.w3.org/2000/svg" p-id="8306" xmlns:xlink="http://www.w3.org/1999/xlink" width="200" height="200"><path d="M908.8 505.6H896c-6.4 0-12.8 6.4-12.8 12.8V851.2c0 6.4 6.4 12.8 12.8 12.8h12.8c6.4 0 12.8-6.4 12.8-12.8V524.8c0-12.8-6.4-19.2-12.8-19.2zM160 505.6h-12.8c-12.8 0-19.2 6.4-19.2 19.2V857.6c0 6.4 6.4 12.8 12.8 12.8h12.8c6.4 0 12.8-6.4 12.8-12.8V524.8c6.4-12.8 0-19.2-6.4-19.2zM435.2 262.4c-19.2 0-32 12.8-32 32h57.6c6.4-12.8-6.4-32-25.6-32zM614.4 262.4c-19.2 0-32 12.8-32 32h57.6c6.4-12.8-6.4-32-25.6-32z" p-id="8307"></path><path d="M262.4 422.4h524.8c32 0 64-32 57.6-64-19.2-89.6-76.8-166.4-147.2-217.6V70.4c0-6.4-6.4-12.8-12.8-12.8h-12.8c-6.4 0-12.8 6.4-12.8 12.8v51.2c-38.4-12.8-83.2-25.6-134.4-25.6-44.8 0-89.6 12.8-134.4 25.6v-51.2c0-6.4-6.4-12.8-12.8-12.8h-6.4c-6.4 0-12.8 6.4-12.8 12.8v70.4c-76.8 51.2-134.4 128-153.6 217.6-6.4 32 25.6 64 57.6 64z m115.2-179.2h288c25.6 0 44.8 19.2 44.8 44.8s-19.2 44.8-44.8 44.8H377.6c-25.6 0-44.8-19.2-44.8-44.8s25.6-44.8 44.8-44.8zM812.8 454.4H243.2c-19.2 0-38.4 19.2-38.4 38.4v435.2c0 19.2 19.2 38.4 38.4 38.4h569.6c19.2 0 38.4-19.2 38.4-38.4V492.8c0-25.6-19.2-38.4-38.4-38.4z m-307.2 396.8c0 12.8-6.4 19.2-19.2 19.2H384c-12.8 0-19.2-6.4-19.2-19.2v-102.4c0-12.8 6.4-19.2 19.2-19.2h102.4c12.8 0 19.2 6.4 19.2 19.2v102.4z m0-179.2c0 12.8-6.4 19.2-19.2 19.2H384c-12.8 0-19.2-6.4-19.2-19.2V569.6c0-12.8 6.4-19.2 19.2-19.2h102.4c12.8 0 19.2 6.4 19.2 19.2v102.4z m179.2 179.2c0 12.8-6.4 19.2-19.2 19.2H563.2c-12.8 0-19.2-6.4-19.2-19.2v-102.4c0-12.8 6.4-19.2 19.2-19.2h102.4c12.8 0 19.2 6.4 19.2 19.2v102.4z m19.2-217.6L627.2 704c-6.4 6.4-19.2 6.4-25.6 0L531.2 633.6c-6.4-6.4-6.4-19.2 0-25.6l70.4-70.4c6.4-6.4 19.2-6.4 25.6 0l76.8 64c6.4 12.8 6.4 25.6 0 32z" p-id="8308"></path></svg>